<?xml version="1.0" encoding="UTF-8"?>
<svg id="_Слой_2_копия_" data-name="Слой 2 (копия)" xmlns="http://www.w3.org/2000/svg" viewBox="0 0 397.06 120">
  <defs>
    <style>
      .cls-1, .cls-2 {
        stroke-width: 0px;
      }

      .cls-1, .cls-3 {
        fill: #f6f6f6;
      }

      .cls-2 {
        fill: #3c3c3b;
      }

      .cls-3 {
        stroke: #3c3c3b;
        stroke-miterlimit: 10;
        stroke-width: 6px;
      }
    </style>
  </defs>
  <g>
    <path class="cls-2" d="M111.16,47.71c.21-1.07.27-2.62.27-4.99.01-21.09.02-31.64-6.11-34.88-7.82-4.13-19.91,6.27-23.96,9.74-1.12.96-1.8,1.65-2.24,2.19-4.76-1.58-9.82-2.48-15.06-2.47-5.03,0-9.86.85-14.42,2.32-.43-.41-.97-.89-1.71-1.48-4.25-3.41-16.98-13.63-25.2-9.58-6.45,3.18-6.44,13.55-6.43,34.28,0,3.08.11,4.75.54,5.78-2.89,6.04-4.42,12.28-4.25,18.07.08,2.5.59,9.02,4.7,15.5,10.5,16.57,34.37,16.91,46.84,17.09,13.37.19,33.27.48,44.5-13.77,1.05-1.34,6.61-8.62,7.04-18.83.25-6.15-1.39-12.72-4.51-18.98Z"/>
    <path class="cls-3" d="M100.73,77.79c2.34-3.67,4.78-8.97,4.37-15.12-1.11-16.43-22.01-30.02-40.95-29.83-18.32.19-38.78,13.3-40.11,30.06-.55,6.89,2.26,12.77,4.67,16.55-1.31,1.71-1.67,3.19-1.75,4.21-.4,4.94,4.74,10.26,12.91,13,.45,2.68.89,5.35,1.34,8.03,3.24.64,6.47,1.28,9.71,1.92.89-.93,1.78-1.86,2.67-2.79l2.8,3.82,7.44.13c.99-1.36,1.98-2.72,2.97-4.07.79,1.27,1.58,2.54,2.36,3.82,2.53-.17,5.05-.34,7.58-.51l1.93-4.25,3.4,3.61c2.57-.56,5.15-1.11,7.72-1.67.61-2.56,1.21-5.11,1.82-7.67,8.88-4.63,13.53-11.23,12.14-15.67-.28-.9-.99-2.26-3.02-3.57Z"/>
    <circle class="cls-2" cx="44.93" cy="69.87" r="9.33"/>
    <circle class="cls-2" cx="83.03" cy="68.62" r="9.33"/>
    <path class="cls-2" d="M64.56,79.25c-2.78.05-4.18.06-4.55-.32-1.26-1.29,1.42-6.22,4.36-6.14,2.83.08,5.16,4.79,3.87,6.06-.13.12-.42.34-3.68.4Z"/>
    <path class="cls-1" d="M25.92,37.99c-.76-.36-.83-1.63-.93-3.42-.27-4.45-.89-14.76,3.56-16.43,2.69-1.01,6,1.63,11.07,5.67.51.41,1.38.85,1.49,1.66.21,1.57-2.45,2.77-5.54,4.93-6.18,4.33-8.09,8.32-9.65,7.59Z"/>
    <path class="cls-1" d="M101.96,38.04c.69-.34.78-1.62.92-3.46.35-4.54,1.17-15.04-2.73-16.94-2.37-1.15-5.37,1.4-9.98,5.31-.47.4-1.25.8-1.37,1.63-.23,1.6,2.11,2.94,4.79,5.28,5.38,4.69,6.98,8.86,8.37,8.17Z"/>
    <circle class="cls-1" cx="41.15" cy="66.15" r="2.72"/>
    <circle class="cls-1" cx="82.68" cy="65.13" r="2.72"/>
    <circle class="cls-1" cx="85.06" cy="67.14" r=".97"/>
    <circle class="cls-1" cx="43.18" cy="68.11" r=".96"/>
  </g>
  <g>
    <path class="cls-2" d="M129.22,73.91v-33.6h6.34v13.34h.86l10.9-13.34h8.11l-14.02,16.56,14.5,17.04h-8.35l-11.14-13.63h-.86v13.63h-6.34Z"/>
    <path class="cls-2" d="M159.27,73.91v-33.6h6.34v33.6h-6.34Z"/>
    <path class="cls-2" d="M179.72,73.91v-27.84h-9.79v-5.76h25.92v5.76h-9.79v27.84h-6.34Z"/>
    <path class="cls-2" d="M207.94,73.91v-27.84h-9.79v-5.76h25.92v5.76h-9.79v27.84h-6.34Z"/>
    <path class="cls-2" d="M237.03,73.91v-11.57l-11.42-22.03h7.06l7.1,14.4h.86l7.1-14.4h7.06l-11.42,22.03v11.57h-6.34Z"/>
    <path class="cls-2" d="M264.68,73.91h-6.34v-33.6h13.82c1.6,0,3.06.24,4.37.72,1.31.48,2.44,1.17,3.38,2.06.94.9,1.68,1.98,2.21,3.26s.79,2.7.79,4.27v.67c0,1.57-.27,2.99-.82,4.27-.54,1.28-1.3,2.37-2.26,3.26-.96.9-2.1,1.58-3.41,2.06-1.31.48-2.74.72-4.27.72h-7.49v12.29ZM264.68,46.07v9.79h6.86c1.5,0,2.72-.42,3.65-1.25.93-.83,1.39-1.97,1.39-3.41v-.48c0-1.44-.46-2.58-1.37-3.41-.91-.83-2.14-1.25-3.67-1.25h-6.86Z"/>
    <path class="cls-2" d="M288.97,73.91h-6.53l8.83-33.6h11.04l8.83,33.6h-6.53l-1.82-7.39h-12l-1.82,7.39ZM296.36,44.3l-4.08,16.37h9.02l-4.08-16.37h-.86Z"/>
    <path class="cls-2" d="M317,73.91l-4.42-33.6h6.29l3.26,29.18h.86l4.22-29.18h10.94l4.22,29.18h.86l3.26-29.18h6.29l-4.42,33.6h-10.94l-4.32-29.86h-.86l-4.32,29.86h-10.94Z"/>
    <path class="cls-2" d="M369.08,74.59c-1.95,0-3.74-.26-5.35-.79-1.62-.53-3.01-1.29-4.18-2.28-1.17-.99-2.07-2.21-2.71-3.65-.64-1.44-.96-3.07-.96-4.9v-1.34h6.24v1.34c0,2.02.62,3.53,1.85,4.54,1.23,1.01,2.94,1.51,5.11,1.51s3.8-.43,4.87-1.3c1.07-.86,1.61-1.97,1.61-3.31,0-.7-.15-1.3-.46-1.78-.3-.48-.74-.9-1.32-1.25-.58-.35-1.28-.66-2.11-.94-.83-.27-1.79-.52-2.88-.74l-1.1-.24c-1.73-.38-3.28-.83-4.66-1.34-1.38-.51-2.54-1.16-3.48-1.94-.94-.78-1.66-1.72-2.16-2.81-.5-1.09-.74-2.4-.74-3.94s.28-2.91.84-4.13c.56-1.22,1.36-2.24,2.4-3.07,1.04-.83,2.29-1.47,3.74-1.92,1.46-.45,3.08-.67,4.87-.67s3.45.22,4.97.67c1.52.45,2.83,1.13,3.94,2.04,1.1.91,1.97,2.06,2.59,3.43.62,1.38.94,2.98.94,4.8v1.44h-6.24v-1.44c0-1.92-.55-3.3-1.66-4.13-1.1-.83-2.62-1.25-4.54-1.25s-3.34.36-4.25,1.08-1.37,1.7-1.37,2.95.48,2.21,1.44,2.88,2.45,1.23,4.46,1.68l1.1.24c1.79.38,3.42.84,4.87,1.37,1.46.53,2.7,1.19,3.74,1.99,1.04.8,1.85,1.75,2.42,2.86.58,1.1.86,2.42.86,3.96s-.3,2.94-.89,4.2c-.59,1.26-1.44,2.35-2.54,3.26-1.1.91-2.44,1.62-4.01,2.14-1.57.51-3.33.77-5.28.77Z"/>
  </g>
  <g>
    <path class="cls-2" d="M132.36,90.05c-.37,0-.72-.05-1.04-.15s-.59-.24-.83-.43c-.23-.19-.42-.42-.55-.7-.13-.28-.2-.59-.2-.95s.07-.67.2-.94c.13-.27.32-.5.56-.68.24-.18.52-.32.85-.41.33-.09.69-.14,1.08-.14h1.9v-.39c0-.33-.1-.6-.31-.81-.21-.21-.53-.31-.98-.31s-.78.1-.99.3-.35.46-.41.78l-1.62-.55c.08-.26.21-.51.36-.75.16-.24.36-.45.61-.62.25-.18.54-.32.89-.43s.74-.16,1.19-.16c.91,0,1.64.23,2.17.68.53.45.8,1.12.8,2v2.59c0,.28.13.42.39.42h.56v1.46h-1.18c-.35,0-.63-.08-.85-.25s-.34-.39-.34-.67h0s-.27-.01-.27-.01c-.03.08-.08.19-.16.32-.08.13-.2.26-.35.38-.15.12-.35.22-.59.31s-.55.13-.91.13ZM132.67,88.62c.49,0,.9-.13,1.21-.41.31-.27.47-.64.47-1.11v-.14h-1.78c-.33,0-.58.07-.77.21-.19.14-.28.34-.28.59s.1.46.29.62c.19.16.48.24.86.24Z"/>
    <path class="cls-2" d="M145.11,90.05c-.5,0-.98-.08-1.41-.24-.44-.16-.82-.39-1.14-.69-.32-.3-.58-.68-.76-1.12s-.28-.95-.28-1.52v-.2c0-.57.09-1.08.28-1.52s.44-.82.76-1.12c.32-.3.7-.53,1.14-.69.44-.16.91-.24,1.41-.24s.94.07,1.34.2c.4.14.74.32,1.02.56.29.24.52.52.7.85.18.33.31.69.38,1.07l-1.71.36c-.06-.42-.22-.77-.49-1.06-.27-.28-.67-.43-1.2-.43s-.98.17-1.34.52c-.36.35-.54.85-.54,1.51v.14c0,.66.18,1.17.54,1.51.36.35.8.52,1.34.52s.94-.14,1.21-.41.45-.64.52-1.08l1.71.41c-.09.37-.23.72-.42,1.05-.19.33-.42.61-.71.85s-.63.42-1.02.56c-.39.13-.84.2-1.33.2Z"/>
    <path class="cls-2" d="M150.17,89.85v-9.8h1.76v3.71h.25c.06-.11.13-.23.23-.34.1-.12.23-.22.39-.31s.36-.16.58-.22c.22-.06.49-.09.8-.09.41,0,.78.07,1.11.21.33.14.61.34.85.6s.42.56.55.92.2.75.2,1.18v4.14h-1.76v-4c0-.53-.13-.93-.38-1.18-.26-.26-.62-.38-1.1-.38-.54,0-.96.18-1.26.54-.3.36-.45.86-.45,1.5v3.53h-1.76Z"/>
    <path class="cls-2" d="M160.95,90.05c-.37,0-.72-.05-1.04-.15s-.59-.24-.83-.43c-.23-.19-.42-.42-.55-.7-.13-.28-.2-.59-.2-.95s.07-.67.2-.94c.13-.27.32-.5.56-.68.24-.18.52-.32.85-.41.33-.09.69-.14,1.08-.14h1.9v-.39c0-.33-.1-.6-.31-.81-.21-.21-.53-.31-.98-.31s-.78.1-.99.3-.35.46-.41.78l-1.62-.55c.08-.26.21-.51.36-.75.16-.24.36-.45.61-.62.25-.18.54-.32.89-.43s.74-.16,1.19-.16c.91,0,1.64.23,2.17.68.53.45.8,1.12.8,2v2.59c0,.28.13.42.39.42h.56v1.46h-1.18c-.35,0-.63-.08-.85-.25s-.34-.39-.34-.67h0s-.27-.01-.27-.01c-.03.08-.08.19-.16.32-.08.13-.2.26-.35.38-.15.12-.35.22-.59.31s-.55.13-.91.13ZM161.26,88.62c.49,0,.9-.13,1.21-.41.31-.27.47-.64.47-1.11v-.14h-1.78c-.33,0-.58.07-.77.21-.19.14-.28.34-.28.59s.1.46.29.62c.19.16.48.24.86.24Z"/>
    <path class="cls-2" d="M170.05,90.05c-.51,0-.99-.08-1.44-.24-.45-.16-.83-.39-1.16-.7-.32-.31-.58-.68-.76-1.12s-.28-.94-.28-1.5v-.22c0-.56.09-1.06.28-1.5s.44-.81.76-1.12c.32-.31.71-.54,1.16-.7.45-.16.93-.24,1.44-.24s1.01.08,1.45.24c.44.16.83.39,1.15.7s.58.68.76,1.12c.19.44.28.94.28,1.5v.22c0,.56-.09,1.06-.28,1.5-.19.44-.44.81-.76,1.12s-.71.54-1.15.7c-.44.16-.93.24-1.45.24ZM170.05,88.48c.54,0,.99-.17,1.34-.53.35-.35.53-.85.53-1.5v-.14c0-.65-.17-1.16-.53-1.5-.35-.35-.8-.53-1.35-.53s-1,.17-1.35.53-.52.85-.52,1.5v.14c0,.65.18,1.16.53,1.5.35.35.8.53,1.34.53Z"/>
    <path class="cls-2" d="M178.2,90.05c-.92,0-1.66-.2-2.23-.59-.57-.39-.92-.95-1.04-1.68l1.62-.42c.09.5.29.83.59,1.01.3.18.65.27,1.06.27s.71-.07.91-.22c.2-.14.29-.32.29-.54s-.09-.38-.27-.5c-.18-.12-.48-.21-.9-.29l-.39-.07c-.36-.07-.71-.15-1.03-.26-.32-.11-.6-.25-.85-.42-.24-.17-.43-.38-.57-.62-.14-.24-.21-.54-.21-.88,0-.69.25-1.22.75-1.59.5-.37,1.16-.55,2-.55.78,0,1.43.17,1.94.52.51.35.84.8,1,1.36l-1.64.5c-.07-.36-.23-.61-.46-.76-.23-.15-.51-.22-.85-.22s-.59.06-.77.17c-.18.12-.27.28-.27.48,0,.22.09.39.27.5.18.11.44.19.76.25l.39.07c.39.07.76.15,1.1.25.34.1.64.24.89.4s.45.37.59.62.22.55.22.92c0,.73-.26,1.29-.79,1.69-.53.4-1.23.59-2.12.59Z"/>
    <path class="cls-2" d="M188.86,89.85c-.47,0-.84-.14-1.12-.43-.28-.29-.42-.67-.42-1.14v-3.92h-1.74v-1.46h1.74v-2.16h1.76v2.16h1.9v1.46h-1.9v3.61c0,.28.13.42.39.42h1.34v1.46h-1.96Z"/>
    <path class="cls-2" d="M195.5,90.05c-.52,0-1-.08-1.43-.25s-.8-.41-1.11-.72c-.31-.31-.55-.69-.71-1.13-.17-.44-.25-.94-.25-1.48v-.17c0-.55.08-1.04.25-1.48.17-.44.4-.81.71-1.13.3-.31.67-.55,1.1-.72.43-.17.9-.25,1.41-.25s.98.09,1.39.26.77.42,1.06.73.52.7.68,1.13c.16.44.24.92.24,1.46v.6h-5.05c0,.23.06.45.15.65.09.2.22.37.38.51.16.14.34.25.55.33.21.08.44.12.68.12s.45-.03.63-.08c.18-.06.33-.13.46-.23s.23-.21.32-.34c.09-.13.16-.25.22-.38l1.44.76c-.09.19-.22.38-.38.59s-.37.41-.61.59c-.24.18-.54.33-.89.46-.35.12-.76.18-1.24.18ZM197.05,85.58c-.05-.4-.21-.72-.49-.97-.28-.24-.65-.36-1.11-.36s-.85.12-1.13.36c-.28.24-.45.56-.52.97h3.25Z"/>
    <path class="cls-2" d="M203.3,90.05c-.92,0-1.66-.2-2.23-.59-.57-.39-.92-.95-1.04-1.68l1.62-.42c.09.5.29.83.59,1.01.3.18.65.27,1.06.27s.71-.07.91-.22c.2-.14.29-.32.29-.54s-.09-.38-.27-.5c-.18-.12-.48-.21-.9-.29l-.39-.07c-.36-.07-.71-.15-1.03-.26-.32-.11-.6-.25-.85-.42-.24-.17-.43-.38-.57-.62-.14-.24-.21-.54-.21-.88,0-.69.25-1.22.75-1.59.5-.37,1.16-.55,2-.55.78,0,1.43.17,1.94.52.51.35.84.8,1,1.36l-1.64.5c-.07-.36-.23-.61-.46-.76-.23-.15-.51-.22-.85-.22s-.59.06-.77.17c-.18.12-.27.28-.27.48,0,.22.09.39.27.5.18.11.44.19.76.25l.39.07c.39.07.76.15,1.1.25.34.1.64.24.89.4s.45.37.59.62.22.55.22.92c0,.73-.26,1.29-.79,1.69-.53.4-1.23.59-2.12.59Z"/>
    <path class="cls-2" d="M210.27,89.85c-.47,0-.84-.14-1.12-.43-.28-.29-.42-.67-.42-1.14v-3.92h-1.74v-1.46h1.74v-2.16h1.76v2.16h1.9v1.46h-1.9v3.61c0,.28.13.42.39.42h1.34v1.46h-1.96Z"/>
    <path class="cls-2" d="M214.86,82.1c-.33,0-.6-.1-.81-.31-.21-.21-.32-.48-.32-.81s.11-.61.32-.81c.21-.21.49-.31.81-.31s.6.1.81.31c.21.21.32.48.32.81s-.11.61-.32.81c-.21.21-.49.31-.81.31ZM213.98,89.85v-6.94h1.76v6.94h-1.76Z"/>
    <path class="cls-2" d="M217.72,89.85v-6.94h1.74v.91h.25c.06-.12.14-.24.24-.36.1-.12.23-.23.39-.33.16-.1.35-.18.59-.24s.5-.09.81-.09c.41,0,.78.07,1.11.21.33.14.61.34.85.6s.42.56.55.92.2.75.2,1.18v4.14h-1.76v-4c0-.53-.13-.93-.38-1.18-.26-.26-.62-.38-1.1-.38-.54,0-.96.18-1.26.54-.3.36-.45.86-.45,1.5v3.53h-1.76Z"/>
    <path class="cls-2" d="M226,86.19c0-.55.08-1.04.25-1.47.17-.43.4-.79.69-1.08s.62-.52,1.01-.68c.38-.16.79-.24,1.22-.24.32,0,.59.03.83.1s.44.15.61.25c.17.1.32.21.43.33.12.12.21.24.29.36h.25v-.84h1.74v8.18c0,.48-.14.86-.42,1.14-.28.28-.65.43-1.12.43h-4.65v-1.54h4.03c.26,0,.39-.14.39-.42v-1.81h-.25c-.07.11-.15.23-.27.35s-.25.23-.42.32c-.17.09-.37.17-.61.23-.24.06-.52.09-.83.09-.43,0-.83-.08-1.22-.24-.38-.16-.72-.39-1.01-.68s-.52-.66-.69-1.09c-.17-.43-.25-.92-.25-1.46v-.22ZM229.67,88.34c.54,0,.99-.17,1.36-.51s.55-.83.55-1.46v-.14c0-.63-.18-1.12-.54-1.46s-.81-.51-1.37-.51-1,.17-1.36.51-.54.83-.54,1.46v.14c0,.63.18,1.12.55,1.46s.82.51,1.36.51Z"/>
    <path class="cls-2" d="M241.49,89.85c-.47,0-.84-.14-1.12-.43-.28-.29-.42-.67-.42-1.14v-3.92h-1.74v-1.46h1.74v-2.16h1.76v2.16h1.9v1.46h-1.9v3.61c0,.28.13.42.39.42h1.34v1.46h-1.96Z"/>
    <path class="cls-2" d="M248.26,90.05c-.51,0-.99-.08-1.44-.24-.45-.16-.83-.39-1.16-.7-.32-.31-.58-.68-.76-1.12s-.28-.94-.28-1.5v-.22c0-.56.09-1.06.28-1.5s.44-.81.76-1.12c.32-.31.71-.54,1.16-.7.45-.16.93-.24,1.44-.24s1.01.08,1.45.24c.44.16.83.39,1.15.7s.58.68.76,1.12c.19.44.28.94.28,1.5v.22c0,.56-.09,1.06-.28,1.5-.19.44-.44.81-.76,1.12s-.71.54-1.15.7c-.44.16-.93.24-1.45.24ZM248.26,88.48c.54,0,.99-.17,1.34-.53.35-.35.53-.85.53-1.5v-.14c0-.65-.17-1.16-.53-1.5-.35-.35-.8-.53-1.35-.53s-1,.17-1.35.53-.52.85-.52,1.5v.14c0,.65.18,1.16.53,1.5.35.35.8.53,1.34.53Z"/>
    <path class="cls-2" d="M256.83,90.05c-.51,0-.99-.08-1.44-.24-.45-.16-.83-.39-1.16-.7-.32-.31-.58-.68-.76-1.12s-.28-.94-.28-1.5v-.22c0-.56.09-1.06.28-1.5s.44-.81.76-1.12c.32-.31.71-.54,1.16-.7.45-.16.93-.24,1.44-.24s1.01.08,1.45.24c.44.16.83.39,1.15.7s.58.68.76,1.12c.19.44.28.94.28,1.5v.22c0,.56-.09,1.06-.28,1.5-.19.44-.44.81-.76,1.12s-.71.54-1.15.7c-.44.16-.93.24-1.45.24ZM256.83,88.48c.54,0,.99-.17,1.34-.53.35-.35.53-.85.53-1.5v-.14c0-.65-.17-1.16-.53-1.5-.35-.35-.8-.53-1.35-.53s-1,.17-1.35.53-.52.85-.52,1.5v.14c0,.65.18,1.16.53,1.5.35.35.8.53,1.34.53Z"/>
    <path class="cls-2" d="M262.1,89.85v-9.8h1.76v9.8h-1.76Z"/>
  </g>
</svg>