<?xml version="1.0" encoding="UTF-8"?>
<svg id="_Слой_2_копия_" data-name="Слой 2 (копия)" xmlns="http://www.w3.org/2000/svg" viewBox="0 0 120 120.01">
  <defs>
    <style>
      .cls-1, .cls-2 {
        stroke-width: 0px;
      }

      .cls-1, .cls-3 {
        fill: #f6f6f6;
      }

      .cls-2 {
        fill: #3c3c3b;
      }

      .cls-3 {
        stroke: #3c3c3b;
        stroke-miterlimit: 10;
        stroke-width: 6px;
      }
    </style>
  </defs>
  <path class="cls-2" d="M108.76,47.06c.21-1.07.27-2.62.27-4.99.01-21.09.02-31.64-6.11-34.88-7.82-4.13-19.91,6.27-23.96,9.74-1.12.96-1.8,1.65-2.24,2.19-4.76-1.58-9.82-2.48-15.06-2.47-5.03,0-9.86.85-14.42,2.32-.43-.41-.97-.89-1.71-1.48-4.25-3.41-16.98-13.63-25.2-9.58-6.45,3.18-6.44,13.55-6.43,34.28,0,3.08.11,4.75.54,5.78-2.89,6.04-4.42,12.28-4.25,18.07.08,2.5.59,9.02,4.7,15.5,10.5,16.57,34.37,16.91,46.84,17.09,13.37.19,33.27.48,44.5-13.77,1.05-1.34,6.61-8.62,7.04-18.83.25-6.15-1.39-12.72-4.51-18.98Z"/>
  <path class="cls-3" d="M98.33,77.14c2.34-3.67,4.78-8.97,4.37-15.12-1.11-16.43-22.01-30.02-40.95-29.83-18.32.19-38.78,13.3-40.11,30.06-.55,6.89,2.26,12.77,4.67,16.55-1.31,1.71-1.67,3.19-1.75,4.21-.4,4.94,4.74,10.26,12.91,13,.45,2.68.89,5.35,1.34,8.03,3.24.64,6.47,1.28,9.71,1.92.89-.93,1.78-1.86,2.67-2.79l2.8,3.82,7.44.13c.99-1.36,1.98-2.72,2.97-4.07.79,1.27,1.58,2.54,2.36,3.82,2.53-.17,5.05-.34,7.58-.51l1.93-4.25,3.4,3.61c2.57-.56,5.15-1.11,7.72-1.67.61-2.56,1.21-5.11,1.82-7.67,8.88-4.63,13.53-11.23,12.14-15.67-.28-.9-.99-2.26-3.02-3.57Z"/>
  <circle class="cls-2" cx="42.53" cy="69.22" r="9.33"/>
  <circle class="cls-2" cx="80.63" cy="67.97" r="9.33"/>
  <path class="cls-2" d="M62.16,78.6c-2.78.05-4.18.06-4.55-.32-1.26-1.29,1.42-6.22,4.36-6.14,2.83.08,5.16,4.79,3.87,6.06-.13.12-.42.34-3.68.4Z"/>
  <path class="cls-1" d="M23.52,37.34c-.76-.36-.83-1.63-.93-3.42-.27-4.45-.89-14.76,3.56-16.43,2.69-1.01,6,1.63,11.07,5.67.51.41,1.38.85,1.49,1.66.21,1.57-2.45,2.77-5.54,4.93-6.18,4.33-8.09,8.32-9.65,7.59Z"/>
  <path class="cls-1" d="M99.56,37.39c.69-.34.78-1.62.92-3.46.35-4.54,1.17-15.04-2.73-16.94-2.37-1.15-5.37,1.4-9.98,5.31-.47.4-1.25.8-1.37,1.63-.23,1.6,2.11,2.94,4.79,5.28,5.38,4.69,6.98,8.86,8.37,8.17Z"/>
  <circle class="cls-1" cx="38.75" cy="65.5" r="2.72"/>
  <circle class="cls-1" cx="80.28" cy="64.47" r="2.72"/>
  <circle class="cls-1" cx="82.66" cy="66.49" r=".97"/>
  <circle class="cls-1" cx="40.78" cy="67.46" r=".96"/>
</svg>