<?xml version="1.0" encoding="UTF-8"?>
<svg xmlns="http://www.w3.org/2000/svg" viewBox="0 0 120 120">
  <defs>
    <style>
      .cls-1 {
        fill: #322035;
      }

      .cls-1, .cls-2, .cls-3 {
        stroke-width: 0px;
      }

      .cls-2, .cls-4 {
        fill: #f6f6f6;
      }

      .cls-3 {
        fill: #e79d3e;
      }

      .cls-4 {
        stroke: #322035;
        stroke-miterlimit: 10;
        stroke-width: 6px;
      }
    </style>
  </defs>
  <g id="_Слой_3" data-name="Слой 3">
    <rect class="cls-3" width="120" height="120" rx="33.03" ry="33.03"/>
  </g>
  <g id="_Слой_2_копия_" data-name="Слой 2 (копия)">
    <g>
      <path class="cls-1" d="M106.94,47.56c.21-1.07.27-2.62.27-4.99.01-21.09.02-31.64-6.11-34.88-7.82-4.13-19.91,6.27-23.96,9.74-1.12.96-1.8,1.65-2.24,2.19-4.76-1.58-9.82-2.48-15.06-2.47-5.03,0-9.86.85-14.42,2.32-.43-.41-.97-.89-1.71-1.48-4.25-3.41-16.98-13.63-25.2-9.58-6.45,3.18-6.44,13.55-6.43,34.28,0,3.08.11,4.75.54,5.78-2.89,6.04-4.42,12.28-4.25,18.07.08,2.5.59,9.02,4.7,15.5,10.5,16.57,34.37,16.91,46.84,17.09,13.37.19,33.27.48,44.5-13.77,1.05-1.34,6.61-8.62,7.04-18.83.25-6.15-1.39-12.72-4.51-18.98Z"/>
      <path class="cls-4" d="M7.43,63.04c-.77,2.2-1.73,5.83-1.45,10.34.19,3.16.93,5.75,1.62,7.59,13.47-3.91,31.57-7.77,53.15-8.56,20.97-.77,38.84,1.58,52.34,4.36.74-1.68,1.87-4.82,1.78-8.89-.11-4.53-1.68-7.89-2.58-9.53-14.76-1.84-32.44-2.97-52.34-2.1-20.15.88-37.84,3.61-52.51,6.79Z"/>
      <path class="cls-4" d="M50.89,53.34c-.75-12.63-1.49-25.26-2.24-37.9,2.45-.79,5.93-1.62,10.16-1.72,4.54-.11,8.28.65,10.85,1.38-.46,12.23-.92,24.46-1.38,36.69-5.8.52-11.6,1.03-17.4,1.55Z"/>
      <path class="cls-4" d="M90.68,81.39c4.43-5.12,5.36-9.5,5.43-12.4.32-13.85-18.33-27.54-35.11-27.53-16.55,0-35.34,13.33-35.11,27.53.05,2.83.89,7.89,6.35,13.87-1.2,1.62-1.39,3.05-1.42,3.74-.16,3.44,2.66,7.09,7.13,8.55-1.08,3.43-2.16,6.85-3.24,10.28,3.68,1.28,7.36,2.56,11.04,3.84,1.26-1.33,2.51-2.66,3.77-3.98.78,1.57,1.56,3.15,2.34,4.72,2.94.1,5.89.2,8.83.3.82-1.97,1.64-3.93,2.47-5.9,1.34,1.62,2.68,3.25,4.03,4.87l6.62-.15c.74-1.62,1.47-3.25,2.21-4.87,1.47,1.28,2.94,2.56,4.41,3.84,3.2-.74,6.41-1.48,9.61-2.21-1.36-3.14-2.73-6.29-4.09-9.43,5.5-3.25,8.2-8.38,7.19-11.89-.2-.69-.74-1.99-2.45-3.17Z"/>
      <circle class="cls-1" cx="40.79" cy="69.71" r="9.33"/>
      <circle class="cls-1" cx="81.89" cy="68.46" r="9.33"/>
      <path class="cls-1" d="M61.85,79.09c-2.78.05-4.18.06-4.55-.32-1.26-1.29,1.42-6.22,4.36-6.14,2.83.08,5.16,4.79,3.87,6.06-.13.12-.42.34-3.68.4Z"/>
      <path class="cls-2" d="M21.78,37.84c-.76-.36-.83-1.63-.93-3.42-.27-4.45-.89-14.76,3.56-16.43,2.69-1.01,6,1.63,11.07,5.67.51.41,1.38.85,1.49,1.66.21,1.57-2.45,2.77-5.54,4.93-6.18,4.33-8.09,8.32-9.65,7.59Z"/>
      <path class="cls-2" d="M97.82,37.89c.69-.34.78-1.62.92-3.46.35-4.54,1.17-15.04-2.73-16.94-2.37-1.15-5.37,1.4-9.98,5.31-.47.4-1.25.8-1.37,1.63-.23,1.6,2.11,2.94,4.79,5.28,5.38,4.69,6.98,8.86,8.37,8.17Z"/>
      <circle class="cls-2" cx="37" cy="66" r="2.72"/>
      <circle class="cls-2" cx="78.54" cy="64.97" r="2.72"/>
      <circle class="cls-2" cx="80.91" cy="66.99" r=".97"/>
      <circle class="cls-2" cx="39.03" cy="67.96" r=".96"/>
    </g>
  </g>
</svg>